<svg xmlns="http://www.w3.org/2000/svg" xmlns:xlink="http://www.w3.org/1999/xlink" width="865.76" height="682.89" viewBox="0 0 865.76 682.89"><defs><clipPath id="a73c0d2f-ff32-468d-8380-c0e1e06fb989"><polygon id="f7be4ba3-b2b6-494b-bb06-f779da282ff4" data-name="SVGID" points="308.74 421.34 308.74 454.5 327.29 447.79 345.45 454.89 345.45 421.34 308.74 421.34" fill="#bcbec0"/></clipPath><clipPath id="f7cc4fe7-c8a4-4c36-a7a3-27f6cd9859c8"><polygon id="ef3b8df4-9305-4c4a-9431-f11e2fcd3dd0" data-name="SVGID" points="308.74 593.06 308.74 626.22 327.29 619.51 345.45 626.62 345.45 593.06 308.74 593.06" fill="#000"/></clipPath><clipPath id="f973496d-0c07-4a4f-b5e7-bb31fc786624"><path id="a7daa43a-bfc0-46dc-a36b-b7f6daacccc0" data-name="SVGID" d="M373.5,241.85s-14.81,0-19.22,10.08c0,0-3.46,22.06,13.24,66.17l12.6,38.76s45-11.57,72.16-14.49a60.84,60.84,0,0,0-14.84-10.83,3.26,3.26,0,0,1-1.68-3.81,128.29,128.29,0,0,0,4.7-24.78,6.09,6.09,0,0,1,2.28-4.32c4-3.27,11.89-11.7,5.13-24,0,0-6.5-10.11-8.56-17.07a22.76,22.76,0,0,0-5.72-9.66c-1.56-1.55-3.29-2.78-4.94-2.89Z" fill="#000"/></clipPath><clipPath id="feaed9e8-25a7-4c99-a763-5244656a43bf"><path id="b04c4d46-11c0-4e62-bc14-f69ddee4c3ca" data-name="SVGID" d="M399.66,201.2l-12.31,35.71a3.42,3.42,0,0,1-2.45,2.23l-11.4,2.71s28.68,41.91,48.53,39.7c0,0,17.65-1.26,6.62-36.55l-14.39-4.9a.41.41,0,0,1-.25-.55l2.66-6.21L400.6,201.83Z" fill="#f9b499"/></clipPath></defs><g style="isolation:isolate"><g id="b57f7dc8-ffea-430a-99ae-8f0e38444dc9" data-name="Layer 1"><g opacity="0.5"><path d="M515,92.33a5.75,5.75,0,1,1-5.75-5.75A5.75,5.75,0,0,1,515,92.33Z" fill="#d1d3d4"/><path d="M384.9,272.41a5.51,5.51,0,1,1-5.51-5.51A5.5,5.5,0,0,1,384.9,272.41Z" fill="#d1d3d4"/><circle cx="607.66" cy="489.6" r="6.76" transform="translate(-70.07 102.77) rotate(-9.14)" fill="#d1d3d4"/><path d="M490,418.84a2.27,2.27,0,1,1-2.26-2.27A2.26,2.26,0,0,1,490,418.84Z" fill="#d1d3d4"/><path d="M584,644.27a2.27,2.27,0,1,1-2.27-2.26A2.27,2.27,0,0,1,584,644.27Z" fill="#d1d3d4"/><circle cx="156.38" cy="210.69" r="2.27" fill="#d1d3d4"/><path d="M586.29,149.89a2.27,2.27,0,1,1-2.26-2.27A2.26,2.26,0,0,1,586.29,149.89Z" fill="#d1d3d4"/><path d="M667.17,208.43a2.27,2.27,0,1,1-2.27-2.27A2.27,2.27,0,0,1,667.17,208.43Z" fill="#d1d3d4"/><path d="M429.8,166.91a2.27,2.27,0,1,1-2.27-2.26A2.27,2.27,0,0,1,429.8,166.91Z" fill="#d1d3d4"/><path d="M156.38,356.37a2.27,2.27,0,1,1-2.26-2.27A2.26,2.26,0,0,1,156.38,356.37Z" fill="#d1d3d4"/><path d="M407.68,527.58a6.87,6.87,0,1,1-6.87-6.87A6.88,6.88,0,0,1,407.68,527.58Z" fill="#d1d3d4"/><circle cx="304.18" cy="405.29" r="5.63" fill="#d1d3d4"/><circle cx="330.36" cy="598.02" r="5.63" fill="#d1d3d4"/><circle cx="418.61" cy="33.74" r="5.63" fill="#d1d3d4"/><path d="M195.17,92.33h0A13.8,13.8,0,0,0,207,104.18h0A13.8,13.8,0,0,0,195.17,116h0a13.82,13.82,0,0,0-11.86-11.86h0a13.82,13.82,0,0,0,11.86-11.85Z" fill="#d1d3d4"/><path d="M73,219.1h0A13.81,13.81,0,0,0,84.87,231h0A13.81,13.81,0,0,0,73,242.82h0A13.8,13.8,0,0,0,61.16,231h0A13.8,13.8,0,0,0,73,219.1Z" fill="#d1d3d4"/><path d="M661.24,399.66h0a6.92,6.92,0,0,0,5.93,5.93h0a6.9,6.9,0,0,0-5.93,5.92h0a6.91,6.91,0,0,0-5.93-5.92h0a6.93,6.93,0,0,0,5.93-5.93Z" fill="#d1d3d4"/><path d="M515,556.92h0a6.9,6.9,0,0,0,5.92,5.92h0a6.92,6.92,0,0,0-5.92,5.93h0a6.93,6.93,0,0,0-5.93-5.93h0a6.91,6.91,0,0,0,5.93-5.92Z" fill="#d1d3d4"/><path d="M244.72,331.36h0a6.9,6.9,0,0,0,5.92,5.93h0a6.9,6.9,0,0,0-5.92,5.93h0a6.91,6.91,0,0,0-5.93-5.93h0a6.91,6.91,0,0,0,5.93-5.93Z" fill="#d1d3d4"/><path d="M655.31,80.65h0a6.91,6.91,0,0,0,5.93,5.93h0a6.9,6.9,0,0,0-5.93,5.93h0a6.9,6.9,0,0,0-5.93-5.93h0a6.91,6.91,0,0,0,5.93-5.93Z" fill="#d1d3d4"/><path d="M460.27,323.11h0A6.9,6.9,0,0,0,466.2,329h0a6.9,6.9,0,0,0-5.93,5.93h0a6.91,6.91,0,0,0-5.93-5.93h0a6.91,6.91,0,0,0,5.93-5.93Z" fill="#d1d3d4"/><path d="M270.65,502.3h0a6.9,6.9,0,0,0,5.92,5.92h0a6.91,6.91,0,0,0-5.92,5.93h0a6.93,6.93,0,0,0-5.93-5.93h0a6.92,6.92,0,0,0,5.93-5.92Z" fill="#d1d3d4"/></g><path d="M578.46,489.46v67.59h-276a33.83,33.83,0,0,1-33.83-33.83h0c0-18.68,15.42-34.74,34.1-34.74Z" fill="#e6e7e8"/><path d="M272.18,519.45s3.57-34.75,44-30H578.46v-7.14l-269.18-.88S273.76,482.53,272.18,519.45Z" fill="#d1d3d4"/><path d="M309.55,482.32H578.46a5.24,5.24,0,0,0,5.24-5.23h0a5.25,5.25,0,0,0-5.24-5.24H308.36A47.36,47.36,0,0,0,261,519.21h0a47.36,47.36,0,0,0,47.36,47.36H578a4.76,4.76,0,0,0,4.76-4.76h0a4.76,4.76,0,0,0-4.76-4.76H309.55a37.37,37.37,0,0,1-37.37-37.6h0A37.38,37.38,0,0,1,309.55,482.32Z" fill="#7C4E29"/><path d="M252.28,410.19v53.39l277,.65s28.66,1.08,30.79-29.79c0,0-7.81-23.55-28.1-23.46Z" fill="#e6e7e8"/><path d="M526.69,464.14s16.32-3.25,19.09-13.55l4.72,6.33S542.16,465.32,526.69,464.14Z" opacity="0.2"/><path d="M252.28,410.19v-8.71H529.84a35.19,35.19,0,0,1,20.68,6.41c6.72,4.89,12.66,13.13,9.5,26.55,0,0-7.11-22.66-28.1-23.46Z" fill="#d1d3d4"/><path d="M245.06,395.17l284.75-.23A39.06,39.06,0,0,1,568.9,434h0a39.07,39.07,0,0,1-39.06,39.07H244.94a4.67,4.67,0,0,1-4.67-4.66h0a4.67,4.67,0,0,1,4.67-4.67H530.72a29.3,29.3,0,0,0,29.3-29.3h0a29.3,29.3,0,0,0-29.32-29.3l-285.64.19a5.08,5.08,0,0,1-5.08-5.17h0A5.08,5.08,0,0,1,245.06,395.17Z" fill="#bcbec0"/><polygon id="b7acfebb-7577-4a25-ac6e-fda978914517" data-name="SVGID" points="308.74 421.34 308.74 454.5 327.29 447.79 345.45 454.89 345.45 421.34 308.74 421.34" fill="#bcbec0"/><g clip-path="url(#a73c0d2f-ff32-468d-8380-c0e1e06fb989)"><path d="M308.75,444.42s15-17.56,36.72-16.77l0-6.31H308.74Z" opacity="0.2"/></g><path d="M252.28,581.92V635.3l277,.65S557.89,637,560,606.17c0,0-7.81-23.56-28.1-23.46Z" fill="#e6e7e8"/><path d="M251.27,584.44v-8.71H528.83a35.13,35.13,0,0,1,20.68,6.42c6.72,4.88,12.66,13.12,9.5,26.54,0,0-7.11-22.66-28.1-23.45Z" fill="#d1d3d4"/><path d="M245.06,566.9l284.75-.24a39.07,39.07,0,0,1,39.09,39.07h0a39.06,39.06,0,0,1-39.06,39.06H244.94a4.66,4.66,0,0,1-4.67-4.66h0a4.66,4.66,0,0,1,4.67-4.66H530.72a29.3,29.3,0,0,0,29.3-29.3h0a29.3,29.3,0,0,0-29.32-29.3l-285.64.18a5.08,5.08,0,0,1-5.08-5.17h0A5.08,5.08,0,0,1,245.06,566.9Z" fill="#000"/><polygon id="b066b256-c936-4e22-9972-874cb8e7c1cf" data-name="SVGID" points="308.74 593.06 308.74 626.22 327.29 619.51 345.45 626.62 345.45 593.06 308.74 593.06" fill="#000"/><g clip-path="url(#f7cc4fe7-c8a4-4c36-a7a3-27f6cd9859c8)"><path d="M308.75,616.14s15-17.55,36.72-16.76l0-6.32H308.74Z" opacity="0.2"/></g><path d="M446.8,202.68c-3.73,7-2.51,14.3-1.43,18.06a34,34,0,0,1,1.29,11.73c-1,14-9.87,15.56-9.87,15.56a47.88,47.88,0,0,0-7.26-2.6l-15.27-5.33c-.55-.22-.24-.55-.24-.55l2.53-5.92a17.25,17.25,0,0,0,6.9-1.59l.24-.11a25,25,0,0,0,8.28-6.14c.26-.27.52-.54.76-.84a41.07,41.07,0,0,0,8-14.34c0-.14.09-.27.13-.41,4.34-13.19.46-23.26.46-23.26l-.1.09c-15.63,14.7-36.87,9.76-36.87,9.76l-3,2.79-1.74,1.62-12,34.91-13.78,68.71c-23.67,14-41.56,2.27-41.56,2.27-9.39-4.11-13.6-12.63-15.41-18.19a29.29,29.29,0,0,1-1.28-7.61c-.61-12.8-9.23-17.2-9.23-17.2-16.05-10.08-13.58-23.87-13.58-23.87-.38-11.11,6.52-16.8,11.91-19.53a28.92,28.92,0,0,1,7.93-2.48c8.6-1.55,13.16-10.6,15.26-16.54a31.68,31.68,0,0,0,1.61-8.06c1.35-17.34,17-28.46,28.09-27.87a15.81,15.81,0,0,0,15.64-9.25c8.85-12.55,28.39-7.42,28.39-7.42,7.2,3.51,12.14,2.07,12.14,2.07,24.07-3.5,30.24,15.63,30.24,15.63,1.47,7,2.65,9.66,3.37,10.69a13.49,13.49,0,0,1,1.87,3.76C453.28,194.42,446.8,202.68,446.8,202.68Z" fill="#7C4E29"/><path d="M416.67,233.34a16.37,16.37,0,0,0,6.78-1.3,17.25,17.25,0,0,1-6.9,1.59Z" fill="#fcbaeb" stroke="#351d66" stroke-miterlimit="10" stroke-width="0.5"/><path d="M440.76,210.61a41.53,41.53,0,0,1-7.38,13.56,28.28,28.28,0,0,0,2.2-3.08,45.3,45.3,0,0,0,5.31-10.89C440.85,210.34,440.8,210.47,440.76,210.61Z" fill="#fcbaeb" stroke="#351d66" stroke-miterlimit="10" stroke-width="0.5"/><path d="M432.73,225c.22-.25.43-.52.65-.78Z" fill="#fcbaeb" stroke="#351d66" stroke-miterlimit="10" stroke-width="0.5"/><path d="M428.65,245s18.59,3.47,19.53,18.28l2.52,58.29a26,26,0,0,0,12.61-4.41s.31,7.56,6.3,10.08c0,0-9.45,12.29-19.54,13.24l-17.33-9.14-1.89-16.07,6.31-48.53Z" fill="#000"/><path d="M428.65,245s18.59,3.47,19.53,18.28l2.52,58.29a26,26,0,0,0,12.61-4.41s.31,7.56,6.3,10.08c0,0-9.45,12.29-19.54,13.24l-17.33-9.14-1.89-16.07,6.31-48.53Z" opacity="0.2"/><path id="e188e25f-7919-4be0-a789-963a88f359b2" data-name="SVGID" d="M373.5,241.85s-14.81,0-19.22,10.08c0,0-3.46,22.06,13.24,66.17l12.6,38.76s45-11.57,72.16-14.49a60.84,60.84,0,0,0-14.84-10.83,3.26,3.26,0,0,1-1.68-3.81,128.29,128.29,0,0,0,4.7-24.78,6.09,6.09,0,0,1,2.28-4.32c4-3.27,11.89-11.7,5.13-24,0,0-6.5-10.11-8.56-17.07a22.76,22.76,0,0,0-5.72-9.66c-1.56-1.55-3.29-2.78-4.94-2.89Z" fill="#000"/><g clip-path="url(#f973496d-0c07-4a4f-b5e7-bb31fc786624)"><path d="M441.25,300.14s-12.92-10.08-34.66,3.15c0,0,16.7,1.58,31.2,18.28L440.45,303A5.84,5.84,0,0,1,441.25,300.14Z" fill="#fff" stroke="#fff" stroke-miterlimit="10" opacity="0.2"/></g><path d="M354.28,251.93s9.14-15.12,18.28.63c0,0,10.08,19.54-.95,35l-52.3,93.59-7.25,11.65s-2.52,3.79-8.51,3.16l-34.34-.64a4.1,4.1,0,0,1-4.62-3.39,1.21,1.21,0,0,1,1.13-1.4l14.6-.8a8.35,8.35,0,0,0,2.86-.67l17.12-7.33a9.32,9.32,0,0,0,5-5.14Z" fill="#f9b499"/><path d="M455.31,393.91s23.71,9.66,34.58,19.65a8,8,0,0,1,2.14,8.52c-1.88,5.48-3.78,16.82,2.11,34.89l11.39,29.2s4.67-6.13,23.06-6.71l-5.84-63.36-19.27-54Z" fill="#7C4E29"/><path d="M455.31,393.91s23.71,9.66,34.58,19.65a8,8,0,0,1,2.14,8.52c-1.88,5.48-3.78,16.82,2.11,34.89l11.39,29.2s4.67-6.13,23.06-6.71l-5.84-63.36-19.27-54Z" opacity="0.2"/><path d="M505.53,486.17l10.3,28.62a48.5,48.5,0,0,0,6.38,16.73s6.38,10.17,11.38,14.14c0,0,5.86-2.42,10.52-1.21,0,0-7.29-17.78-11.41-27.21a15.3,15.3,0,0,1-1.23-4.8l-2.88-33S514.53,478.41,505.53,486.17Z" fill="#f9b499"/><path d="M505.9,263.3l22.49-7.17a.11.11,0,0,1,.12.17l-33.86,43.88-19,5.77s0,0,0,0Z" fill="#7C4E29"/><polygon points="435.61 293.4 433.62 292.74 470.17 249.07 505.9 263.3 470.17 251.39 435.61 293.4" fill="#e6e7e8"/><path d="M515.24,513.47s-9,11.17-4.12,18.42a15.4,15.4,0,0,0,7.06,4.51s6.07,3.53,10.19,12.15c0,0,2.35,5.68,10.39,5.68l14.31-.78s1.09-5.26-9-9c0,0-3.73-1.49-10.52,1.21,0,0-15.6-14.45-17.76-30.87Z" fill="#000"/><path id="b0d7e1b3-f5b1-426e-b63d-b74ce99fe561" data-name="SVGID" d="M399.66,201.2l-12.31,35.71a3.42,3.42,0,0,1-2.45,2.23l-11.4,2.71s28.68,41.91,48.53,39.7c0,0,17.65-1.26,6.62-36.55l-14.39-4.9a.41.41,0,0,1-.25-.55l2.66-6.21L400.6,201.83Z" fill="#f9b499"/><g clip-path="url(#feaed9e8-25a7-4c99-a763-5244656a43bf)"><path d="M400.61,218.62s4.11,15.69,15.89,15l-2.24,6.48S399,237.55,400.61,218.62Z" fill="#f7a48b"/></g><path d="M440.89,210.2c0,.14-.09.27-.13.41a41.53,41.53,0,0,1-7.38,13.56l-.65.78c-.24.3-.5.57-.76.84a26.86,26.86,0,0,1-8.28,6.14l-.24.11a17.25,17.25,0,0,1-6.9,1.59,13.72,13.72,0,0,1-4.62-.7c-10.34-3.39-14.88-18.1-10.53-33.35l3-2.79s21.24,4.94,36.87-9.76C443.51,193.49,443.55,201.81,440.89,210.2Z" fill="#f9b499"/><ellipse cx="398.87" cy="196.79" rx="5.51" ry="7.88" fill="#f9b499"/><path d="M380.12,356.86s-2.77,47.27,37.52,46.1c0,0,36.17,4,83.76-30.66a1.06,1.06,0,0,1,1.67,1c-1.17,6.2-2,22,13.84,39L532.39,431s3.79-9.93,19.56-12l-28.62-76.61a5.4,5.4,0,0,0-4.55-3.49c-8.07-.76-30.51-1.92-66.5,3.45C452.28,342.37,426.69,344.93,380.12,356.86Z" fill="#7C4E29"/><path d="M532.39,431l17.6,25.7a5,5,0,0,1,.81,2c.15,1,.78,2.68,3,5,0,0,5.95,10.94,24.61,19.58a13.81,13.81,0,0,1,8.8-4s-16.54-19-20.93-26.84L552,419S538,420.2,532.39,431Z" fill="#f9b499"/><path d="M550.82,458.21c0-.08-.08-.1-.12,0-.86,1.93-5.63,13.5,1,18.87,0,0,.69.68,8.62,2.41,0,0,4.49-.35,15,8.62,0,0,2.25,4.31,10.87,2.24l12.41-5.17s-.64-5.45-11.44-5.92a14,14,0,0,0-8.78,4s-16.75-7.3-24.47-19.47A10.67,10.67,0,0,1,550.82,458.21Z" fill="#000"/><path d="M470.17,251.39,505.9,263.3l-30.13,42.48a.37.37,0,0,1-.37.13l-41.12-10.86Z" fill="#7C4E29"/><path d="M463.31,317.16a20.32,20.32,0,0,1,3.61-8.59s-7.55-11-4.79-15.21a.89.89,0,0,1,1.46,0L471.93,305l.83-.42s-8.84-9.5-6.09-14.65a1.61,1.61,0,0,1,2.66-.11l9,11.69a.25.25,0,0,0,.43-.07l2.27-6.35a6.47,6.47,0,0,0,.18-3.77c-.61-2.46-1.33-6.78.63-8.6a.87.87,0,0,1,1.44.39l2.54,9.06a6.36,6.36,0,0,1,0,3.54l-2.9,9.83a8.27,8.27,0,0,1-1,2.12l-12.33,19.56S463.45,325.54,463.31,317.16Z" fill="#f9b499"/><path d="M753.38,469.45l-5-18.79a11.24,11.24,0,0,0-18.79-5h0a11.23,11.23,0,0,0,5,18.78Z" fill="#d1d3d4"/><path d="M744.51,460.57l-2.22-8.28a5,5,0,0,0-8.29-2.22h0a5,5,0,0,0,2.22,8.28Z" opacity="0.1"/><path d="M724.3,458.3l18-18a16.09,16.09,0,0,0-1.15-2.37c-10.61-17.81-27.47-39.12-44.71-56.36-26.81-26.81-46.69-35.93-61.52-35.66a5.1,5.1,0,0,0-5,5c-.28,14.84,8.85,34.72,35.65,61.52,17.25,17.25,38.55,34.1,56.37,44.71A15.24,15.24,0,0,0,724.3,458.3Z" fill="#d1d3d4"/><path d="M637.54,365.51a25.85,25.85,0,0,1,12-11.95q3.29-1.41,6.62-2.52c-8-3.72-15.06-5.23-21.22-5.12a5.1,5.1,0,0,0-5,5c-.12,6.16,1.4,13.2,5.11,21.23C635.77,369.92,636.6,367.71,637.54,365.51Z" fill="#bcbec0"/><path d="M728.74,453.86l9.1-9.11c-.42-.67-.91-1.36-1.45-2.07a605.3,605.3,0,0,0-47.59-53.49c-26.8-26.8-44-38.58-55.13-42-2-.64-3.17.48-2.53,2.52,3.45,11.11,15.23,28.34,42,55.14a605.3,605.3,0,0,0,53.49,47.59C727.37,453,728.06,453.43,728.74,453.86Z" opacity="0.1"/><polygon points="695.03 432.09 694.65 476.82 706.67 473.44 716.04 450.88 695.03 432.09" fill="#bcbec0"/><polygon points="717.02 410.1 761.75 409.72 758.37 421.74 735.81 431.11 717.02 410.1" fill="#bcbec0"/><rect x="722.14" y="448.69" width="25.36" height="4.41" transform="translate(-103.6 651.66) rotate(-45)" fill="#bcbec0"/><rect x="728.25" y="448.69" width="13.14" height="4.41" transform="translate(-103.6 651.66) rotate(-45)" opacity="0.05"/><circle cx="669.34" cy="385.36" r="15.55" fill="#bcbec0"/><circle cx="669.34" cy="385.36" r="13.53" opacity="0.1"/><circle cx="669.34" cy="385.36" r="11.74" fill="#e6e7e8"/><path d="M661,377.06a11.72,11.72,0,0,0-2.89,11.82,11.73,11.73,0,0,1,22.84-2.1,11.73,11.73,0,0,0-20-9.72Z" opacity="0.1"/><circle cx="663.51" cy="390.43" r="2.69" fill="#fff"/><path d="M668,393.21a1.21,1.21,0,0,1,0,1.71,1.2,1.2,0,0,1-1.7,0,1.21,1.21,0,0,1,0-1.71A1.2,1.2,0,0,1,668,393.21Z" fill="#fff"/><circle cx="192.66" cy="132.75" r="43.56" transform="translate(19.19 289.76) rotate(-76.72)" fill="#d1d3d4"/><g opacity="0.2" style="mix-blend-mode:multiply"><path d="M213.24,143.79c4.36-1.39,9-1.69,13.27-3.4a33.67,33.67,0,0,0,9.68-6.52c0-.37,0-.74,0-1.12a43.28,43.28,0,0,0-3.27-16.56c-.45,1.63-.81,3.31-1.25,4.93-2,7.58-6.35,15.19-13.6,18.16-5.52,2.26-11.73,1.49-17.7,1.49-7.18,0-14.48,1.23-20.89,4.48s-11.89,8.65-14.38,15.39a27.29,27.29,0,0,0-1.27,4.77q1,.85,2,1.65a32.18,32.18,0,0,1,9.52-11.52c7.07-5.36,16-7.91,24.83-8.52a34.84,34.84,0,0,0-18.07,28q1.41.34,2.85.6c.36-.8.74-1.58,1.12-2.35,3-6.17,6.3-12.29,10.66-17.59S206.69,145.88,213.24,143.79Z"/><path d="M235.72,139.32c-4.64,4.28-10.3,7.28-15.56,10.78s-10.38,7.84-12.88,13.67a26.64,26.64,0,0,0-1.93,10.66q1-.3,2-.66a28.54,28.54,0,0,1,9.76-13.39,33.42,33.42,0,0,1,13.33-5.92A43.29,43.29,0,0,0,235.72,139.32Z"/><path d="M152.32,149.2c2.28-9.07,5.85-18.41,13.3-24,4.5-3.39,10.06-5.13,15.64-6s11.23-.85,16.86-1.14a31.73,31.73,0,0,0,7.59-1.06,24.31,24.31,0,0,0,8-4.42,29.15,29.15,0,0,0,8.94-11.38A43.54,43.54,0,0,0,204.87,91a25.44,25.44,0,0,1-5.68,8.38,35.82,35.82,0,0,1-7.34,5.22c-11.47,6.49-25,10.38-33.51,20.45a41.31,41.31,0,0,0-8.21,17.16A43.91,43.91,0,0,0,152.32,149.2Z"/><path d="M214.75,119.88a16.66,16.66,0,0,1-4,2.89,20,20,0,0,1-6.18,1.37c-3.85.43-7.71.91-11.51,1.68a39.12,39.12,0,0,0-14.18,5.36c-4.23,2.83-7.68,7.09-8.68,12.07.88-3.16,3.61-5.43,6.34-7.25,3.78-2.53,8-4.66,12.57-4.86,6-.26,11.58,2.81,17.52,3.32a21,21,0,0,0,19.07-9.41c2.32-3.63,3.68-8.15,6-11.64a43.56,43.56,0,0,0-7.1-10.27,24.72,24.72,0,0,1-4,10.21A35.56,35.56,0,0,1,214.75,119.88Z"/></g><path d="M212.54,159.74A43.54,43.54,0,0,1,176,92.51a43.56,43.56,0,1,0,53.22,63.92A43.45,43.45,0,0,1,212.54,159.74Z" opacity="0.1"/><circle cx="666.14" cy="127.25" r="33.48" transform="translate(-11.78 146.17) rotate(-12.41)" fill="#d1d3d4"/><path d="M653.63,123.6a33.37,33.37,0,0,1-3-26c-.35.18-.7.32-1,.52a33.48,33.48,0,1,0,48.63,38.55A33.46,33.46,0,0,1,653.63,123.6Z" opacity="0.1"/><path d="M687.49,101.45a32.44,32.44,0,0,1,3.93,3.85C722.18,89,745,79,746.45,81.63c1.93,3.39-32.46,26.56-76.82,51.76s-81.87,42.87-83.8,39.48c-1.49-2.62,18.75-17.08,48.51-35.15a33.56,33.56,0,0,1-1.28-5.35c-47.24,28.38-80.31,52.7-77.48,57.68,3.35,5.89,55.56-17.45,116.62-52.14S780.05,70.33,776.71,64.44C773.88,59.46,736.05,75.41,687.49,101.45Z" fill="#d1d3d4" opacity="0.6" style="mix-blend-mode:screen"/><circle cx="136.88" cy="337.91" r="96.86" fill="#e6e7e8" style="mix-blend-mode:screen"/><circle cx="136.88" cy="337.91" r="52.22" fill="#d1d3d4"/><g opacity="0.1" style="mix-blend-mode:multiply"><path d="M138.45,362.16c-3.54,3.42-6,7.73-9.08,11.61a54.42,54.42,0,0,1-13.19,12.09,51.87,51.87,0,0,0,11.52,3.46c2.77-5.16,4.41-10.9,7.17-16.08,3.06-5.76,8.17-11.13,14.67-11.67,7.12-.61,13.26,4.61,18.49,9.48,1.64,1.53,3.28,3.08,4.86,4.68a52.3,52.3,0,0,0,9.42-12.05c-.73-.62-1.46-1.22-2.19-1.79C168.15,352.61,149.34,351.64,138.45,362.16Z"/><path d="M100.77,306.16c10,1,19.3,5.13,28.54,9s18.86,7.56,28.87,7.5a40.44,40.44,0,0,0,24.9-9.11,52.68,52.68,0,0,0-5.85-8.79,28.08,28.08,0,0,1-9.38,5.13c-9.84,3.1-20.52.69-30.31-2.55S118,300,107.7,299.69a40.83,40.83,0,0,0-6.82.4A50.71,50.71,0,0,0,95.55,306,37.8,37.8,0,0,1,100.77,306.16Z"/><path d="M162.27,352.5c7.49,1.4,14.87,4.95,22.2,6.95a52.5,52.5,0,0,0,3.78-12.09h0c-9.36,1.4-18.88-.14-28.34-.4A104.64,104.64,0,0,0,114,356.23c-1.38.63-3,1.95-2.32,3.3.57,1.13,2.19,1,3.42.72C130.72,356.42,146.46,349.56,162.27,352.5Z"/><path d="M117.74,289.31c1.42.63,2.81,1.32,4.17,2.05,4.89,2.62,9.48,5.84,14.6,8,9.6,4,20.33,4,30.73,3.85a19.29,19.29,0,0,0,7.1-1l.46-.2a52.27,52.27,0,0,0-57.06-12.7Z"/><path d="M185.45,318.68a34.11,34.11,0,0,1-9.42,7.17c-9.45,4.87-20.67,5.49-31.09,3.42s-20.18-6.66-29.48-11.8c-6.13-3.39-13.38-7.14-19.76-4.25-3.79,1.72-6.32,5.57-7.23,9.63a27.06,27.06,0,0,0,.62,12.35c1.48,5.93,4.42,12.08,10,14.68,7.74,3.63,16.55-1.05,24.45-4.33a76.29,76.29,0,0,1,38.13-5.3c8,.95,16.37,3.17,24,.6a22.56,22.56,0,0,0,3.41-1.49c0-.48,0-1,0-1.45A52.25,52.25,0,0,0,185.45,318.68Zm-71.21,21.48a15.17,15.17,0,0,1-7.22,1.91c-2.46.14-5.16-.06-7-1.73a7.77,7.77,0,0,1-1.79-2.71c-1.7-4-2.07-11.11,1.53-14.25a6.4,6.4,0,0,1,1.95-1.14c3.66-1.35,8.57.43,11.29,2.63a14.28,14.28,0,0,1,3.51,5,10.5,10.5,0,0,1,1.33,4.07A7.18,7.18,0,0,1,114.24,340.16Z"/></g></g></g></svg>